<svg height="444pt" viewBox="-5 0 443 444" width="444pt" xmlns="http://www.w3.org/2000/svg"><path d="m134.101562 320.398438-5.601562 10.402343v10.398438c0 3.199219 2.398438 6.402343 5.601562 8l25.597657 7.199219-4.800781-62.398438c-2.398438-28-26.398438-48.800781-54.398438-46.398438-24.800781 1.597657-44.800781 21.597657-46.398438 46.398438l-4.800781 62.398438 25.597657-7.199219c3.203124-.800781 5.601562-4 5.601562-8v-10.398438l-5.601562-11.199219c-1.597657-3.203124-2.398438-7.203124-2.398438-10.402343v-15.199219c0-17.601562 14.398438-32 32-32s32 14.398438 32 32v15.199219c0 4-.800781 7.199219-2.398438 11.199219zm0 0"/><path d="m162.898438 373.199219-32.796876-9.597657c-.800781 0-2.402343-.800781-3.203124-.800781l-38.398438 38.398438v34.402343l12 7.199219c2.398438 1.597657 5.601562 1.597657 8 0l60-34.402343v-27.199219c0-3.199219-2.398438-6.398438-5.601562-8zm-10.398438 24.800781h-24v-16h24zm0 0"/><path d="m119.699219 313.199219c.800781-.800781.800781-2.398438.800781-3.199219v-16c0-8.800781-7.199219-16-16-16s-16 7.199219-16 16v15.199219c0 1.601562 0 2.402343.800781 3.199219l7.199219 14.402343v13.597657c0 4-.800781 7.203124-2.398438 11.203124l10.398438 10.398438 10.398438-10.398438c-1.597657-3.203124-2.398438-7.203124-2.398438-11.203124v-13.597657zm0 0"/><path d="m207.699219 79.601562 8.800781 4.796876 8.800781-4.796876c7.199219-4 16-4.800781 23.199219-1.601562v-16c0-4.800781-3.199219-8-8-8h-48c-4.800781 0-8 3.199219-8 8v16c8-3.199219 16.800781-2.398438 23.199219 1.601562zm0 0"/><path d="m82.101562 362.800781c-.800781.800781-2.402343.800781-3.203124.800781l-32.796876 9.597657c-3.203124.800781-5.601562 4-5.601562 8v27.199219l32 18.402343v-32l20.800781-20.800781zm0 0"/><path d="m231.699219 236.398438 48.800781-28v-38.398438c0-3.199219-2.398438-6.398438-5.601562-7.199219l-32-10.402343-15.199219 13.601562 11.199219 11.199219c6.402343 6.402343 8.800781 16.800781 5.601562 25.601562zm24.800781-62.398438h16v16h-16zm0 0"/><path d="m136.5 169.199219c0-10.398438 6.398438-19.199219 16.800781-22.398438l24.800781-8-2.402343-2.402343c-4.800781-4.796876-7.199219-10.398438-7.199219-16.796876v-57.601562c0-13.601562 10.398438-24 24-24h48c13.601562 0 24 10.398438 24 24v57.601562c0 6.398438-2.398438 12.796876-7.199219 16.796876l-2.402343 2.402343 24.800781 8c9.601562 3.199219 16.800781 12.800781 16.800781 22.398438v29.601562l24-13.601562v-121.597657c0-3.203124-1.601562-5.601562-4-7.203124l-96-55.199219c-2.398438-1.597657-5.601562-1.597657-8 0l-96 55.199219c-2.398438 1.601562-4 4-4 7.203124v122.398438l24 13.601562zm0 0"/><path d="m205.300781 166-15.199219-15.199219-32 10.398438c-3.203124 1.601562-5.601562 4.800781-5.601562 8v38.402343l48.800781 28-12.800781-33.601562c-3.199219-8.800781-.800781-18.398438 5.601562-25.601562zm0 0"/><path d="m216.5 154.800781 28.800781-28.800781c1.597657-1.601562 2.398438-3.199219 2.398438-5.601562v-18.398438c0-5.601562-4.800781-10.398438-10.398438-10.398438-1.601562 0-4 .796876-5.601562 1.597657l-15.199219 10.402343-16.800781-10.402343c-4.800781-3.199219-11.199219-1.597657-13.597657 3.199219-.800781 1.601562-1.601562 4-1.601562 5.601562v17.601562c0 2.398438.800781 4 2.398438 5.597657l11.203124 11.199219 8.796876 8.800781zm0 0"/><path d="m428.5 256.398438-100-56.796876-100 56.796876c-1.601562.800781-2.398438.800781-4 1.601562v127.199219l24 13.601562v-29.601562c0-10.398438 6.398438-19.199219 16.800781-22.398438l27.199219-8.800781-7.199219-11.199219c-3.199219-4-4.800781-8.800781-4.800781-13.601562v-51.199219c0-13.601562 10.398438-24 24-24h72v75.199219c0 4.800781-1.601562 9.601562-4 13.601562l-7.199219 11.199219 27.199219 8.800781c9.601562 3.199219 16.800781 12.800781 16.800781 22.398438v29.601562l20-11.199219c2.398438-1.601562 4-4 4-7.203124v-116.796876c-.800781-3.203124-2.402343-5.601562-4.800781-7.203124zm0 0"/><path d="m386.898438 362-32-10.398438c-14.398438 14.398438-38.398438 14.398438-52.796876 0l-32 10.398438c-3.203124.800781-5.601562 4-5.601562 7.199219v38.402343l60 34.398438c2.398438 1.601562 5.601562 1.601562 8 0l60-34.398438v-38.402343c0-3.199219-2.398438-6.398438-5.601562-7.199219zm-50.398438 60h-16v-16h16zm0-32h-16v-16h16zm40 0h-24v-16h24zm0 0"/><path d="m296.5 294v19.199219c0 1.601562.800781 3.199219 1.601562 4.800781l12.796876 20c7.203124 9.601562 20.800781 12 30.402343 4 1.597657-1.601562 3.199219-2.398438 4-4l12.800781-20c.796876-1.601562 1.597657-3.199219 1.597657-4.800781v-20.800781l-31.199219-6.398438-32 6.398438zm0 0"/><path d="m360.5 276.398438v-22.398438h-56c-4.800781 0-8 3.199219-8 8v14.398438l32-6.398438zm0 0"/><path d="m227.699219 188.398438-11.199219-11.199219-11.199219 11.199219c-2.402343 2.402343-3.199219 5.601562-1.601562 8.800781l12.800781 34.402343 12.800781-34.402343c.800781-3.199219.800781-6.398438-1.601562-8.800781zm0 0"/><path d="m104.5 199.601562-100 56.796876c-2.398438 1.601562-4 4-4 7.203124v117.597657c0 3.199219 1.601562 5.601562 4 7.199219l20 10.402343v-17.601562c0-7.199219 3.199219-13.597657 8-17.597657l5.601562-71.203124c3.199219-36.796876 35.199219-64 71.199219-61.597657 32.800781 2.398438 58.398438 28.800781 61.597657 61.597657l5.601562 71.203124c4.800781 4.796876 8 11.199219 8 17.597657v17.601562l24-13.601562v-127.199219c-1.601562-.800781-2.398438-.800781-4-1.601562zm0 0"/></svg>