<?xml version="1.0" encoding="iso-8859-1"?>
<!-- Generator: Adobe Illustrator 19.0.0, SVG Export Plug-In . SVG Version: 6.00 Build 0)  -->
<svg version="1.1" id="Layer_1" xmlns="http://www.w3.org/2000/svg" xmlns:xlink="http://www.w3.org/1999/xlink" x="0px" y="0px"
	 viewBox="0 0 512.001 512.001" style="enable-background:new 0 0 512.001 512.001;" xml:space="preserve">
<g>
	<g>
		<path d="M375.071,86.028c-11.366,0-22.143,2.561-31.796,7.122c3.686,4.748,6.998,9.802,9.882,15.121
			c2.828,5.216,5.244,10.688,7.214,16.364c3.928,11.321,6.069,23.469,6.069,36.109c0,12.639-2.141,24.788-6.069,36.108
			c-1.969,5.678-4.386,11.147-7.214,16.364c-2.884,5.319-6.195,10.372-9.882,15.121c9.653,4.56,20.43,7.123,31.796,7.123
			c41.199,0.002,74.716-33.516,74.716-74.714C449.787,119.545,416.27,86.028,375.071,86.028z"/>
	</g>
</g>
<g>
	<g>
		<path d="M375.071,271.182c-4.42,0-8.827,0.218-13.206,0.641c6.82,5.311,13.237,11.115,19.187,17.369
			c6.005,6.311,11.53,13.079,16.534,20.237c16.349,23.386,27.066,50.987,30.146,80.823c0.607,5.873,0.92,11.83,0.92,17.86
			c0,6.261-1.09,12.27-3.072,17.86h68.56c9.864,0,17.86-7.998,17.86-17.86C512.001,332.608,450.574,271.182,375.071,271.182z"/>
	</g>
</g>
<g>
	<g>
		<path d="M151.632,196.855c-3.928-11.32-6.069-23.469-6.069-36.108c0-12.64,2.141-24.788,6.069-36.109
			c1.971-5.68,4.386-11.15,7.214-16.366c2.884-5.319,6.195-10.372,9.882-15.121c-9.653-4.56-20.43-7.122-31.796-7.122
			c-41.199,0-74.716,33.517-74.716,74.716c0,41.198,33.517,74.716,74.716,74.716c11.366,0,22.143-2.562,31.796-7.123
			c-3.686-4.749-6.998-9.802-9.882-15.121C156.018,208.002,153.602,202.532,151.632,196.855z"/>
	</g>
</g>
<g>
	<g>
		<path d="M136.93,271.182C61.427,271.182,0,332.608,0,408.112c0,9.863,7.997,17.86,17.86,17.86h68.56
			c-1.981-5.59-3.071-11.6-3.071-17.86c0-6.031,0.313-11.988,0.919-17.86c3.08-29.836,13.797-57.437,30.146-80.823
			c5.005-7.158,10.529-13.926,16.534-20.237c5.95-6.254,12.367-12.058,19.187-17.369C145.757,271.4,141.35,271.182,136.93,271.182z"
			/>
	</g>
</g>
<g>
	<g>
		<path d="M325.393,133.094c-2.509-6.271-5.831-12.13-9.857-17.433c-13.657-17.988-35.257-29.633-59.535-29.633
			s-45.878,11.645-59.535,29.635c-4.026,5.303-7.348,11.162-9.857,17.433c-3.421,8.559-5.325,17.883-5.325,27.649
			c0,9.765,1.904,19.089,5.325,27.648c2.509,6.271,5.831,12.13,9.857,17.433c13.657,17.988,35.257,29.634,59.535,29.634
			s45.878-11.646,59.535-29.636c4.026-5.303,7.348-11.162,9.857-17.433c3.421-8.559,5.325-17.882,5.325-27.648
			S328.814,141.653,325.393,133.094z"/>
	</g>
</g>
<g>
	<g>
		<path d="M391.768,390.252c-4.11-31.402-18.901-59.488-40.594-80.489c-5.137-4.971-10.656-9.547-16.515-13.672
			c-6.044-4.256-12.444-8.04-19.149-11.288c-12.892-6.246-26.905-10.528-41.647-12.457v111.953c0,9.863-7.997,17.86-17.86,17.86
			c-9.864,0-17.86-7.998-17.86-17.86V272.346c-14.743,1.929-28.755,6.211-41.648,12.457c-6.705,3.249-13.105,7.032-19.149,11.288
			c-5.859,4.126-11.38,8.702-16.515,13.672c-21.695,21-36.485,49.087-40.594,80.489c-0.764,5.846-1.163,11.807-1.163,17.86
			c0,9.863,7.997,17.86,17.86,17.86h238.14c9.864,0,17.86-7.998,17.86-17.86C392.933,402.059,392.534,396.098,391.768,390.252z"/>
	</g>
</g>
<g>
</g>
<g>
</g>
<g>
</g>
<g>
</g>
<g>
</g>
<g>
</g>
<g>
</g>
<g>
</g>
<g>
</g>
<g>
</g>
<g>
</g>
<g>
</g>
<g>
</g>
<g>
</g>
<g>
</g>
</svg>
