<svg height="399pt" viewBox="0 0 399.84752 399" width="399pt" xmlns="http://www.w3.org/2000/svg"><path d="m399.847656 168.421875c-.027344-60.773437-32.859375-116.796875-85.867187-146.523437-53.007813-29.722657-117.929688-28.515626-169.796875 3.15625 49.589844-15.738282 103.527344-9.757813 148.464844 16.460937 3.8125 2.234375 5.09375 7.136719 2.859374 10.949219-2.234374 3.8125-7.136718 5.09375-10.949218 2.859375-25.703125-15.015625-54.941406-22.921875-84.710938-22.902344-30.839844-.074219-61.085937 8.4375-87.359375 24.582031 65.429688-20.71875 136.957031-3.265625 185.492188 45.261719 48.539062 48.523437 66.003906 120.046875 45.296875 185.484375 32.007812-52.449219 32.792968-118.195312 2.050781-171.394531-1.578125-2.476563-1.667969-5.621094-.234375-8.1875 1.429688-2.566407 4.15625-4.140625 7.09375-4.101563 2.9375.039063 5.617188 1.6875 6.980469 4.289063 25.835937 44.714843 31.691406 98.230469 16.128906 147.472656 16.117187-26.300781 24.617187-56.558594 24.550781-87.40625zm-58.777344-73.359375c-3.417968 2.804688-8.460937 2.304688-11.261718-1.113281-6.9375-8.460938-14.675782-16.226563-23.105469-23.199219-3.410156-2.816406-3.890625-7.859375-1.074219-11.269531 2.8125-3.410157 7.859375-3.890625 11.265625-1.074219 9.226563 7.621094 17.695313 16.117188 25.289063 25.367188 1.355468 1.640624 2 3.757812 1.789062 5.875-.207031 2.117187-1.253906 4.066406-2.902344 5.414062zm0 0"/><path d="m313.261719 316.707031c38.117187-65.910156 27.179687-149.210937-26.664063-203.046875-53.84375-53.835937-137.148437-64.765625-203.054687-26.640625-6.332031 3.699219-12.417969 7.800781-18.222657 12.28125-51.574218 39.828125-75.46875 105.886719-61.304687 169.488281 14.167969 63.605469 63.835937 113.28125 127.4375 127.457032 63.601563 14.175781 129.664063-9.707032 169.496094-61.273438 4.507812-5.808594 8.621093-11.910156 12.3125-18.265625zm-199.199219 40.800781c-.941406 1.902344-2.601562 3.355469-4.613281 4.03125-2.011719.679688-4.210938.53125-6.113281-.414062-13.832032-6.878906-26.445313-15.96875-37.34375-26.910156-8.074219-8.042969-15.136719-17.039063-21.023438-26.792969-1.535156-2.453125-1.628906-5.542969-.242188-8.082031 1.390626-2.535156 4.039063-4.128906 6.929688-4.164063 2.894531-.03125 5.578125 1.5 7.023438 4.003907 5.226562 8.652343 11.496093 16.628906 18.664062 23.753906 9.671875 9.710937 20.863281 17.78125 33.136719 23.886718 3.957031 1.960938 5.578125 6.761719 3.613281 10.71875zm5.785156-85.085937h16c0 17.671875 14.328125 32 32 32s32-14.328125 32-32c0-17.675781-14.328125-32-32-32-24.847656-.144531-45.476562-19.226563-47.554687-43.984375s15.082031-47.011719 39.554687-51.296875v-16.71875h16v16.71875c23.066406 3.917969 39.957032 23.882813 40 47.28125h-16c0-17.675781-14.328125-32-32-32s-32 14.324219-32 32c0 17.671875 14.328125 32 32 32 24.84375.144531 45.472656 19.222656 47.554688 43.980469 2.078125 24.761718-15.082032 47.015625-39.554688 51.296875v16.722656h-16v-16.722656c-23.066406-3.917969-39.957031-23.882813-40-47.277344zm153.953125 57.503906c-.1875.199219-.382812.394531-.585937.574219-1.136719 1.257812-2.3125 2.503906-3.566406 3.753906-34.007813 33.894532-82.644532 48.652344-129.753907 39.375-4.332031-.859375-7.152343-5.070312-6.292969-9.402344.859376-4.335937 5.070313-7.152343 9.40625-6.292968 41.878907 8.292968 85.132813-4.835938 115.335938-35.007813 1.261719-1.25 2.398438-2.488281 3.503906-3.722656.085938-.09375.191406-.183594.289063-.277344l.109375-.105469c.128906-.121093.242187-.246093.367187-.359374 42.867188-46.84375 44.6875-118.105469 4.273438-167.078126-2.667969-3.238281-5.523438-6.378906-8.566407-9.417968-41.234374-41.226563-105.128906-49.355469-155.371093-19.761719-50.238281 29.59375-74.113281 89.414063-58.046875 145.464844 1.210937 4.25-1.253906 8.679687-5.503906 9.890625-4.25 1.207031-8.675782-1.253906-9.886719-5.503906-12.058594-41.691407-4.582031-86.597657 20.335937-122.128907 30.746094-44.167969 83.558594-67.503906 136.917969-60.503906 53.359375 7.003906 98.359375 43.171875 116.671875 93.777344s6.875 107.199219-29.644531 146.726562zm0 0"/></svg>