<svg height="512pt" viewBox="0 0 512 512" width="512pt" xmlns="http://www.w3.org/2000/svg"><path d="m256 121c-74.441406 0-135 60.558594-135 135s60.558594 135 135 135 135-60.558594 135-135-60.558594-135-135-135zm-.160156 124.394531c24.8125 0 45 20.1875 45 45 0 19.46875-12.5 35.929688-29.839844 42.1875v13.417969c0 8.289062-6.710938 15-15 15s-15-6.710938-15-15v-13.320312c-17.503906-6.164063-30.160156-22.695313-30.160156-42.285157 0-8.289062 6.707031-15 15-15 8.289062 0 15 6.710938 15 15 0 8.277344 6.722656 15 15 15 8.273437 0 15-6.722656 15-15 0-8.277343-6.726563-15-15-15-24.816406 0-45-20.183593-45-45 0-19.589843 12.65625-36.117187 30.160156-42.285156v-22.109375c0-8.289062 6.710938-15 15-15s15 6.710938 15 15v22.210938c17.339844 6.253906 29.839844 22.714843 29.839844 42.183593 0 8.292969-6.710938 15-15 15-8.292969 0-15-6.707031-15-15 0-8.277343-6.726563-15-15-15-8.277344 0-15 6.722657-15 15 0 8.277344 6.722656 15 15 15zm0 0"/><path d="m501.746094 211.777344-27.046875-8.6875c-5.476563-22.734375-14.414063-44.296875-26.660157-64.292969l12.292969-24.578125c2.886719-5.773438 1.757813-12.746094-2.8125-17.316406l-42.421875-42.421875c-4.570312-4.570313-11.515625-5.683594-17.316406-2.8125l-24.578125 12.289062c-20.023437-12.246093-41.589844-21.179687-64.292969-26.660156l-8.6875-27.042969c-2.035156-6.121094-7.761718-10.253906-14.222656-10.253906h-60c-6.460938 0-12.1875 4.132812-14.222656 10.253906l-8.6875 27.046875c-22.707032 5.476563-44.269532 14.414063-64.292969 26.660157l-24.578125-12.292969c-5.789062-2.914063-12.730469-1.785157-17.316406 2.8125l-42.421875 42.421875c-4.570313 4.570312-5.699219 11.542968-2.8125 17.316406l12.289062 24.578125c-12.246093 19.996094-21.179687 41.558594-26.660156 64.292969l-27.042969 8.6875c-6.121094 2.035156-10.253906 7.761718-10.253906 14.222656v60c0 6.460938 4.132812 12.1875 10.253906 14.222656l27.046875 8.6875c5.476563 22.707032 14.414063 44.269532 26.660157 64.292969l-12.292969 24.578125c-2.886719 5.773438-1.757813 12.746094 2.8125 17.316406l42.421875 42.421875c4.601562 4.597657 11.574218 5.726563 17.316406 2.8125l24.578125-12.289062c20.023437 12.246093 41.589844 21.179687 64.292969 26.660156l8.6875 27.042969c2.035156 6.121094 7.761718 10.253906 14.222656 10.253906h60c6.460938 0 12.1875-4.132812 14.222656-10.253906l8.6875-27.046875c22.707032-5.476563 44.269532-14.414063 64.292969-26.660157l24.578125 12.292969c5.757812 2.871094 12.730469 1.757813 17.316406-2.8125l42.421875-42.421875c4.570313-4.570312 5.699219-11.542968 2.8125-17.316406l-12.289062-24.578125c12.246093-20.023437 21.179687-41.589844 26.660156-64.292969l27.042969-8.6875c6.121094-2.035156 10.253906-7.761718 10.253906-14.222656v-60c0-6.460938-4.132812-12.1875-10.253906-14.222656zm-245.746094 209.222656c-90.980469 0-165-74.019531-165-165s74.019531-165 165-165 165 74.019531 165 165-74.019531 165-165 165zm0 0"/></svg>